<?xml version="1.0" encoding="UTF-8"?>
<svg viewBox="0 0 166.37231 168.47308" xmlns="http://www.w3.org/2000/svg">
 <defs>
  <linearGradient id="a" x1="379.92" x2="387.75" y1="-298.54" y2="-148.13" gradientUnits="userSpaceOnUse">
   <stop stop-color="#0146a8" offset="0"/>
   <stop stop-color="#0146a8" stop-opacity="0" offset="1"/>
  </linearGradient>
  <linearGradient id="b" x1="381.89" x2="387.75" y1="-310.05" y2="-147.97" gradientTransform="matrix(.93571 0 0 .97143 96.553 671.01)" gradientUnits="userSpaceOnUse">
   <stop stop-color="#edf4fd" stop-opacity=".52846" offset="0"/>
   <stop stop-color="#175bb3" stop-opacity="0" offset="1"/>
  </linearGradient>
 </defs>
 <g transform="matrix(.75853 0 0 .75853 -265.27 -270.1)">
  <path transform="matrix(1 0 0 1.0126 71.626 678.21)" d="m497.42-208.45c0 60.568-49.1 109.67-109.67 109.67s-109.67-49.1-109.67-109.67 49.1-109.67 109.67-109.67 109.67 49.1 109.67 109.67z" fill="#103683"/>
  <path transform="matrix(.93571 0 0 .97143 96.553 671.01)" d="m497.42-208.45c0 60.568-49.1 109.67-109.67 109.67s-109.67-49.1-109.67-109.67 49.1-109.67 109.67-109.67 109.67 49.1 109.67 109.67z" fill="url(#a)"/>
  <g transform="matrix(.85187 0 0 .85187 -241.81 5.46)" fill="#eee">
   <path d="m820.67 454.65a16.355 12.354 0 0 0 -6.3125 1.2188 16.355 12.354 0 0 0 -7.0312 4.9062l-68.406 88.781a16.355 12.354 0 0 0 7.75 17.594l61.438-79.719a16.355 12.354 0 0 1 7.0312 -4.9375 16.355 12.354 0 0 1 21.312 5l60.25 79.531a16.355 12.354 0 0 0 6.5 -17.031l-67.531-89.125a16.355 12.354 0 0 0 -15 -6.2188z"/>
   <path transform="translate(0 308.27)" d="m820.34 187.12a10.051 7.8493 0 0 0 -3.875 0.75 10.051 7.8493 0 0 0 -4.3438 3.125l-42.031 56.406a10.051 7.8493 0 0 0 -0.40625 0.5625c-0.01 0.0143 0.01 0.0481 0 0.0625a10.051 7.8493 0 0 0 -0.0937 0.0937c-1.2273 1.8742-1.9062 4.1136-1.9062 6.5312v49.031c0 6.5978 5.2831 11.906 11.875 11.906h24.562v-42.906c0-6.5978 5.2831-11.906 11.875-11.906h9.125c6.5919 0 11.875 5.3085 11.875 11.906v42.906h24.531c6.5919 0 11.906-5.3085 11.906-11.906v-49.031c0-3.1164-1.212-5.913-3.1562-8.0312l-40.75-55.562a10.051 7.8493 0 0 0 -9.1875 -3.9375z"/>
   <path d="m781.38 469.55a11.358 18.431 0 0 1 11.358 18.431v2.3059a11.358 18.431 0 0 1 -11.358 18.431 11.358 18.431 0 0 1 -11.358 -18.431v-2.3059a11.358 18.431 0 0 1 11.358 -18.431"/>
  </g>
  <path d="m459.38 361.97c-56.674 0-102.62 47.725-102.62 106.56 0 3.7524 0.1979 7.4415 0.5625 11.094 50.067 18.726 126.58 32.369 204.69-10.594 7.4e-4 -0.16695 0-0.33287 0-0.5 0-58.837-45.951-106.56-102.62-106.56z" fill="url(#b)"/>
 </g>
</svg>
